<svg xmlns="http://www.w3.org/2000/svg" xmlns:xlink="http://www.w3.org/1999/xlink" fill="none"
  version="1.1" width="72" height="32" viewBox="0 0 72 32">
  <defs>
    <clipPath id="master_svg0_8_0059">
      <rect x="0" y="0" width="72" height="32" rx="0" />
    </clipPath>
  </defs>
  <g clip-path="url(#master_svg0_8_0059)">
    <g>
      <path
        d="M18.418,14.8242Q18.4062,15.832,18.2246,16.6289Q18.043,17.4258,17.709,18.0645Q17.375,18.7031,16.900399999999998,19.2129Q16.425800000000002,19.7227,15.8164,20.168Q14.6445,21.0117,13.25,21.4395Q11.85547,21.8672,10.44922,21.8672Q10.21484,21.8672,9.986329999999999,21.8555Q9.75781,21.8438,9.52344,21.8203L9.13672,26.0977L8.9375,26.4609Q8.91406,26.5078,8.53906,26.6484Q8.16406,26.7891,7.60156,26.9766L6.86328,27.2227Q6.51172,27.3516,6.24219,27.457Q5.972659999999999,27.5625,5.73828,27.6445Q5.503909999999999,27.7266,5.28125,27.7676Q5.058590000000001,27.8086,4.8125,27.8086Q4.64844,27.8086,4.55469,27.7266Q4.46094,27.6445,4.46094,27.4102L4.589840000000001,25.4062Q4.625,24.8086,4.67773,24.2051Q4.73047,23.6016,4.777340000000001,22.8281L5,20.0273Q5.07031,19.1719,5.128909999999999,18.3164Q5.1875,17.4609,5.246090000000001,16.6875Q5.30469,15.9141,5.35156,15.2402Q5.39844,14.5664,5.433590000000001,14.0625Q4.80078,14.2031,4.419919999999999,14.2676Q4.03906,14.332,3.8398399999999997,14.332Q3.59375,14.332,3.59375,14.1211Q3.75781,13.5469,3.89844,12.9961Q4.027340000000001,12.5273,4.16211,12.0293Q4.29688,11.5312,4.39062,11.1914Q4.44922,10.9805,4.52539,10.8691Q4.60156,10.7578,4.72461,10.6934Q4.847659999999999,10.6289,5.04102,10.5762Q5.23438,10.5234,5.51562,10.4297Q5.73828,10.3594,6.14258,10.2715Q6.54688,10.1836,7.06836,10.0957Q7.58984,10.0078,8.19922,9.92578Q8.808589999999999,9.84375,9.43555,9.7793Q10.0625,9.71484,10.67188,9.67383Q11.28125,9.63281,11.82031,9.63281Q13.1562,9.63281,14.3516,9.87891Q15.5469,10.125,16.449199999999998,10.7168Q17.351599999999998,11.3086,17.8848,12.3105Q18.418,13.3125,18.418,14.8242ZM9.85156,18.3398Q9.85156,18.4688,9.89844,18.5684Q9.94531,18.668,10.15625,18.668Q10.48438,18.668,10.93555,18.5215Q11.38672,18.375,11.83789,18.082Q12.2891,17.7891,12.6758,17.3555Q13.0625,16.9219,13.2617,16.3359Q13.3438,16.1016,13.3965,15.7383Q13.4492,15.375,13.4492,14.8828Q13.4492,14.0625,12.8809,13.6758Q12.3125,13.2891,11.39844,13.2891Q11.24609,13.2891,11.05273,13.3066Q10.85938,13.3242,10.68945,13.3711Q10.51953,13.418,10.40234,13.4824Q10.28516,13.5469,10.27344,13.6523L10.25,13.9102Q10.23828,14.0625,10.20312,14.4082Q10.16797,14.7539,10.12695,15.1992Q10.08594,15.6445,10.04492,16.1367Q10.00391,16.6289,9.96289,17.0742Q9.92188,17.5195,9.892579999999999,17.8594Q9.86328,18.1992,9.85156,18.3398ZM19.3086,22.0312Q19.4609,20.4258,19.6133,18.8555Q19.7656,17.2852,19.8828,15.6328Q19.9062,15.2461,19.959,15.0996Q20.0117,14.9531,20.2227,14.9062Q21.2188,14.707,22.3086,14.4902Q23.3984,14.2734,24.418,13.9336Q24.4531,13.9219,24.5234,13.9219Q24.6523,13.9219,24.6523,14.0156L23.5977,25.4297Q23.5625,25.8164,23.5156,25.9629Q23.4688,26.1094,23.2578,26.1562Q22.2617,26.4609,21.2422,26.8359Q20.2227,27.2109,19.0859,27.5977Q19.0508,27.6094,18.9805,27.6094Q18.8516,27.6094,18.8516,27.4922Q18.8516,27.4805,18.875,27.1758Q18.8984,26.8711,18.9395,26.3906Q18.9805,25.9102,19.0273,25.3125Q19.0742,24.7148,19.127,24.1172Q19.1797,23.5195,19.2266,22.9688Q19.2734,22.418,19.3086,22.0312ZM20.1875,12.6797Q20.2227,12.1758,20.2402,11.9062Q20.2578,11.6367,20.2695,11.502Q20.2812,11.3672,20.2812,11.332Q20.2812,11.2969,20.2871,11.2793Q20.293,11.2617,20.2988,11.209Q20.3047,11.1562,20.3164,10.9863Q20.3281,10.8164,20.3516,10.4883Q20.375,10.1602,20.4219,9.58594Q20.4453,9.19922,20.498,9.05273Q20.5508,8.90625,20.7617,8.85938Q21.7578,8.66016,22.8477,8.44336Q23.9375,8.22656,24.957,7.88672Q24.9922,7.875,25.0625,7.875Q25.0977,7.94531,25.1562,7.96875L25.1914,7.99219L24.9336,11.2031Q24.8984,11.5898,24.8457,11.7422Q24.793,11.8945,24.5938,11.9297Q23.5977,12.1172,22.5781,12.3398Q21.5586,12.5625,20.4219,12.7852Q20.3867,12.7969,20.3164,12.7969Q20.1875,12.7969,20.1875,12.6797ZM25.9414,21.2812Q25.9414,19.7461,26.5098,18.4043Q27.0781,17.0625,28.0801,16.0664Q29.082,15.0703,30.4473,14.4961Q31.8125,13.9219,33.418,13.9219Q34.5078,13.9219,35.2812,14.0977Q36.0547,14.2734,36.5469,14.4902Q37.0391,14.707,37.2676,14.8887Q37.4961,15.0703,37.4961,15.082Q37.4961,15.1523,37.4434,15.4746Q37.3906,15.7969,37.3262,16.2246Q37.2617,16.6523,37.209,17.1035Q37.1562,17.5547,37.1562,17.8828Q37.1562,17.9414,37.1211,18.0117Q37.0859,18.082,36.9336,18.082Q36.793,18.082,36.5234,17.9824Q36.2539,17.8828,35.8613,17.7656Q35.4688,17.6484,34.959,17.5488Q34.4492,17.4492,33.8281,17.4492Q33.0547,17.4492,32.4336,17.7246Q31.8125,18,31.3672,18.4863Q30.9219,18.9727,30.6816,19.6406Q30.4414,20.3086,30.4414,21.082Q30.4414,21.8906,30.6934,22.459Q30.9453,23.0273,31.3672,23.3848Q31.7891,23.7422,32.3398,23.9062Q32.8906,24.0703,33.5,24.0703Q34.2031,24.0703,34.918,23.877Q35.6328,23.6836,36.2656,23.332Q36.2891,23.3203,36.3594,23.3203Q36.418,23.3203,36.4473,23.3789Q36.4766,23.4375,36.4766,23.6016Q36.4766,23.9766,36.4766,24.5098Q36.4766,25.043,36.4707,25.5293Q36.4648,26.0156,36.4531,26.3555Q36.4414,26.6953,36.4297,26.6953Q36.0078,26.9766,35.5156,27.1523Q35.0234,27.3281,34.502,27.4336Q33.9805,27.5391,33.4531,27.5742Q32.925799999999995,27.6094,32.4336,27.6094Q31.0625,27.6094,29.8789,27.1523Q28.6953,26.6953,27.8223,25.8633Q26.9492,25.0312,26.4453,23.8652Q25.9414,22.6992,25.9414,21.2812ZM50.3516,24.6445Q50.3398,24.6914,50.3398,24.7324Q50.3398,24.7734,50.3398,24.8086Q50.3398,25.1016,50.4336,25.2949Q50.5273,25.4883,50.6387,25.6113Q50.75,25.7344,50.8438,25.8105Q50.9375,25.8867,50.9375,25.9453Q50.9375,26.1094,50.5859,26.25L47.4336,27.5977Q47.4219,27.6094,47.3516,27.6094Q47.2578,27.6094,47.1641,27.4453Q47.0703,27.2812,46.9824,27.0293Q46.8945,26.7773,46.8184,26.4902Q46.7422,26.2031,46.6836,25.957Q45.9453,26.8125,45.0898,27.2109Q44.2344,27.6094,43.3906,27.6094Q42.4062,27.6094,41.4688,27.1758Q40.5312,26.7422,39.8047,25.9395Q39.0781,25.1367,38.6387,24Q38.1992,22.8633,38.1992,21.4453Q38.1992,19.7695,38.6855,18.3867Q39.1719,17.0039,40.0039,16.0078Q40.8359,15.0117,41.9434,14.4668Q43.0508,13.9219,44.293,13.9219Q45.1719,13.9219,45.957,14.2793Q46.7422,14.6367,47.4453,15.1992Q47.5156,14.8477,47.5273,14.6367Q47.5391,14.4258,47.5801,14.3086Q47.6211,14.1914,47.7383,14.1504Q47.8555,14.1094,48.125,14.0859Q48.9688,13.9688,49.8066,13.8691Q50.6445,13.7695,51.5586,13.7227L50.3516,24.6445ZM46.8477,20.2266Q46.9648,19.5586,47.0059,18.9668Q47.0469,18.375,47.0703,17.8828Q46.8828,17.7422,46.666,17.5898Q46.4492,17.4375,46.1973,17.3027Q45.9453,17.168,45.6699,17.0859Q45.3945,17.0039,45.0898,17.0039Q44.457,17.0039,44.0293,17.4141Q43.6016,17.8242,43.3379,18.4219Q43.0742,19.0195,42.9629,19.6875Q42.8516,20.3555,42.8516,20.8711Q42.8516,22.7227,43.3379,23.584Q43.8242,24.4453,44.6914,24.4453Q45.043,24.4453,45.4766,24.2461Q45.9102,24.0469,46.3555,23.6953L46.8477,20.2266ZM53.8203,17.0859Q53.9609,15.4805,54.0488,13.9102Q54.1367,12.3398,54.2422,10.6875Q54.2656,10.3008,54.3184,10.1543Q54.3711,10.0078,54.582,9.96094Q55.6719,9.76172,56.7676,9.55664Q57.8633,9.35156,58.9648,9.01172Q59,9,59.0703,9Q59.1992,9,59.1992,9.11719L57.6758,25.8516L57.6758,26.0508Q57.6758,26.1562,57.5938,26.2207Q57.5117,26.2852,57.207,26.3672L54.1367,27.4922Q54.0078,27.5508,53.7969,27.6152Q53.5859,27.6797,53.3867,27.6797Q53.2227,27.6797,53.0996,27.5977Q52.9766,27.5156,52.9766,27.3164L52.9766,27.2461Q53.0703,26.0625,53.1582,24.9316Q53.2461,23.8008,53.3457,22.5938Q53.4453,21.3867,53.5625,20.0391Q53.6797,18.6914,53.8203,17.0859ZM60.3594,23.7656Q60.3594,23.7539,60.3535,23.748Q60.3477,23.7422,60.3477,23.7305Q60.3477,23.5781,60.5117,23.5781Q60.6172,23.5781,60.6992,23.6602Q61.168,24.1055,61.7715,24.3867Q62.375,24.668,63.0781,24.668Q63.2656,24.668,63.5117,24.627Q63.7578,24.5859,63.9805,24.4922Q64.2031,24.3984,64.34960000000001,24.2402Q64.4961,24.082,64.4961,23.8477Q64.4961,23.5898,64.3672,23.373Q64.23830000000001,23.1562,64.0273,23.0156Q63.9102,22.9336,63.6172,22.7285Q63.3242,22.5234,62.9902,22.2891Q62.6562,22.0547,62.3574,21.8438Q62.0586,21.6328,61.9414,21.5391Q61.4141,21.1406,61.1035,20.7305Q60.793,20.3203,60.6289,19.8809Q60.4648,19.4414,60.418,18.9609Q60.3711,18.4805,60.3711,17.9414Q60.3711,17.1211,60.8047,16.3945Q61.2383,15.668,61.9473,15.1172Q62.6562,14.5664,63.5586,14.2441Q64.46090000000001,13.9219,65.39840000000001,13.9219Q66.1719,13.9219,66.9219,14.1562Q67.6719,14.3906,68.3164,14.9531Q68.375,15.6914,68.3984,16.4062Q68.4219,17.1211,68.4688,17.9062Q68.4688,18.0586,68.3984,18.1113Q68.3281,18.1641,68.2344,18.1641Q68.1523,18.1641,68.0938,18.1055Q67.8242,17.8477,67.543,17.5957Q67.2617,17.3438,66.9512,17.1504Q66.6406,16.957,66.2891,16.834Q65.9375,16.7109,65.53909999999999,16.7109Q65.293,16.7109,65.0469,16.752Q64.80080000000001,16.793,64.60159999999999,16.9043Q64.4023,17.0156,64.2793,17.2031Q64.1562,17.3906,64.1562,17.6836Q64.1562,18.0234,64.23830000000001,18.2695Q64.3203,18.5156,64.625,18.75L66.8047,20.2266Q67.4023,20.6367,67.7715,21.0293Q68.1406,21.4219,68.3516,21.8086Q68.5625,22.1953,68.6387,22.5762Q68.7148,22.957,68.7148,23.332Q68.7148,24.3867,68.2285,25.1895Q67.7422,25.9922,66.9688,26.5254Q66.1953,27.0586,65.2168,27.334Q64.23830000000001,27.6094,63.2539,27.6094Q62.5039,27.6094,61.8066,27.4512Q61.1094,27.293,60.5117,26.9648L60.3594,23.7656Z"
        fill="#0090F0" fill-opacity="1" />
    </g>
  </g>
</svg>